# xmcd
#
# Track frame offsets:
#  150
#  9750
#  25264
#  37365
#  48786
#  62950
#  73658
#  87884
#  100234
#  111328
#  125395
#  143786
#
# Disc length: 2145 seconds
#
# Revision: 1
# Processed by: cddbd v1.5.1PL2 Copyright (c) Steve Scherf et al.
# Submitted via: Collectorz.com_Music_Collector 6.11
#
DISCID=a2085f0c
DTITLE="Uncle" John Turner - I-10 Hurricane Blues
DYEAR=2006
DGENRE=Blues -  Blues Harmonica -  Blues Texas Style
TTITLE0=I-10 Hurricane Blues
TTITLE1=I Hear You Knockin'
TTITLE2=Bridge City Blues
TTITLE3=Good Understanding
TTITLE4=Beaumont Blues
TTITLE5=Hey Senorita
TTITLE6=Really Is Hurtin' Thing
TTITLE7=T Bone Intentions
TTITLE8=Honest I Do
TTITLE9=I'm Gonna Keep What I've Got
TTITLE10=She's Nineteen Years Old
TTITLE11=Hurricane Rita Blues
EXTD=
EXTT0=
EXTT1=
EXTT2=
EXTT3=
EXTT4=
EXTT5=
EXTT6=
EXTT7=
EXTT8=
EXTT9=
EXTT10=
EXTT11=
PLAYORDER=
